<svg width="32" height="33" viewBox="0 0 32 33" fill="none" xmlns="http://www.w3.org/2000/svg">
<g clip-path="url(#clip0_1_1630)">
<path d="M6.59402 6.77625C5.25802 6.77625 4.02402 7.44425 3.28102 8.55725L0.500017 12.7142C0.172729 13.2044 -0.0013216 13.7809 1.71777e-05 14.3702V20.9952C-0.00182665 21.4392 0.144812 21.8709 0.416612 22.2219C0.688412 22.5729 1.06976 22.8229 1.50002 22.9322L4.09402 23.5892C4.28058 24.488 4.77057 25.2952 5.48177 25.8755C6.19297 26.4558 7.08212 26.7738 8.00002 26.7762C9.85202 26.7762 11.398 25.4952 11.844 23.7762H21.156C21.602 25.4952 23.148 26.7762 25 26.7762C26.852 26.7762 28.398 25.4952 28.844 23.7762H30C31.094 23.7762 32 22.8702 32 21.7762V18.1202C31.9991 17.2289 31.7003 16.3634 31.1511 15.6613C30.6019 14.9593 29.8339 14.4608 28.969 14.2452L23.562 12.8702L19.656 8.21425C19.2824 7.76462 18.8143 7.40272 18.2852 7.15421C17.756 6.90569 17.1786 6.77666 16.594 6.77625H6.59402ZM6.59402 8.77625H11V12.7762H2.87502L4.93802 9.68225V9.65125C5.1192 9.37912 5.36547 9.15655 5.65449 9.00375C5.94351 8.85094 6.26711 8.77274 6.59402 8.77625ZM13 8.77625H16.594C17.187 8.77625 17.746 9.03824 18.125 9.49524L20.875 12.7762H13V8.77625ZM2.00002 14.7762H22.875L28.5 16.1822C28.9317 16.2894 29.3145 16.5389 29.5867 16.8906C29.8589 17.2423 30.0046 17.6755 30 18.1202V21.7762H28.844C28.398 20.0572 26.852 18.7762 25 18.7762C23.148 18.7762 21.602 20.0572 21.156 21.7762H11.844C11.398 20.0572 9.85202 18.7762 8.00002 18.7762C6.22702 18.7762 4.73802 19.9482 4.21902 21.5572L2.00002 20.9962V14.7762ZM8.00002 20.7762C9.11702 20.7762 10 21.6592 10 22.7762C10 23.8932 9.11702 24.7762 8.00002 24.7762C6.88302 24.7762 6.00002 23.8932 6.00002 22.7762C6.00002 21.6592 6.88302 20.7762 8.00002 20.7762ZM25 20.7762C26.117 20.7762 27 21.6592 27 22.7762C27 23.8932 26.117 24.7762 25 24.7762C23.883 24.7762 23 23.8932 23 22.7762C23 21.6592 23.883 20.7762 25 20.7762Z" fill="#3CB34A"/>
</g>
<defs>
<clipPath id="clip0_1_1630">
<rect width="32" height="32" fill="white" transform="translate(0 0.776245)"/>
</clipPath>
</defs>
</svg>
