<svg width="37" height="37" viewBox="0 0 37 37" fill="none" xmlns="http://www.w3.org/2000/svg">
<path fill-rule="evenodd" clip-rule="evenodd" d="M15.0341 11.0929C14.0422 11.8363 13.594 12.7274 13.594 13.5591C13.594 14.3926 14.0422 15.2836 15.0341 16.0289C16.0278 16.7742 17.4823 17.289 19.1655 17.289C19.6429 17.289 20.1008 17.4787 20.4384 17.8163C20.776 18.1539 20.9656 18.6118 20.9656 19.0892C20.9656 19.5666 20.776 20.0245 20.4384 20.3621C20.1008 20.6997 19.6429 20.8894 19.1655 20.8894C16.7785 20.8894 14.5481 20.1657 12.8739 18.9092C11.1998 17.6527 9.99365 15.7805 9.99365 13.5609C9.99365 11.3395 11.1998 9.46732 12.8739 8.2108C14.5481 6.95609 16.7803 6.23242 19.1655 6.23242C22.8612 6.23242 26.3553 8.00198 27.7451 10.9489C27.8459 11.1628 27.9036 11.3945 27.9149 11.6307C27.9261 11.867 27.8908 12.1031 27.8108 12.3257C27.7308 12.5483 27.6078 12.7529 27.4487 12.9279C27.2896 13.103 27.0976 13.2449 26.8837 13.3458C26.6697 13.4466 26.438 13.5043 26.2018 13.5156C25.9656 13.5268 25.7294 13.4915 25.5068 13.4115C25.2843 13.3315 25.0796 13.2085 24.9046 13.0494C24.7296 12.8903 24.5876 12.6983 24.4868 12.4844C23.8567 11.1397 21.8909 9.83275 19.1673 9.83275C17.4841 9.83275 16.0278 10.3476 15.0341 11.0929Z" fill="currentColor"/>
<path fill-rule="evenodd" clip-rule="evenodd" d="M22.7027 27.0835C23.6946 26.34 24.141 25.4489 24.141 24.6172C24.141 23.7838 23.6946 22.8909 22.7009 22.1474C21.709 21.4021 20.2527 20.8873 18.5713 20.8873C18.0939 20.8873 17.636 20.6976 17.2984 20.36C16.9608 20.0224 16.7712 19.5646 16.7712 19.0871C16.7712 18.6097 16.9608 18.1518 17.2984 17.8142C17.636 17.4766 18.0939 17.287 18.5713 17.287C20.9584 17.287 23.1888 18.0106 24.8629 19.2671C26.5371 20.5237 27.7414 22.3958 27.7414 24.6154C27.7414 26.835 26.5371 28.709 24.8611 29.9637C23.187 31.2202 20.9584 31.9439 18.5713 31.9439C14.8756 31.9439 11.3797 30.1743 9.99176 27.2257C9.78814 26.7938 9.7644 26.2988 9.92577 25.8495C10.0871 25.4001 10.4204 25.0333 10.8522 24.8297C11.2841 24.626 11.7791 24.6023 12.2285 24.7637C12.6778 24.925 13.0446 25.2583 13.2483 25.6901C13.8819 27.0367 15.8477 28.3436 18.5713 28.3436C20.2545 28.3436 21.709 27.8287 22.7027 27.0835ZM18.8198 2.63184C19.2972 2.63184 19.7551 2.8215 20.0927 3.15909C20.4303 3.49669 20.6199 3.95457 20.6199 4.432V6.23216C20.6199 6.7096 20.4303 7.16748 20.0927 7.50507C19.7551 7.84267 19.2972 8.03233 18.8198 8.03233C18.3423 8.03233 17.8845 7.84267 17.5469 7.50507C17.2093 7.16748 17.0196 6.7096 17.0196 6.23216V4.432C17.0196 3.95457 17.2093 3.49669 17.5469 3.15909C17.8845 2.8215 18.3423 2.63184 18.8198 2.63184Z" fill="currentColor"/>
<path fill-rule="evenodd" clip-rule="evenodd" d="M18.8197 29.6348C19.2971 29.6348 19.755 29.8244 20.0926 30.162C20.4302 30.4996 20.6199 30.9575 20.6199 31.4349V33.2351C20.6199 33.7125 20.4302 34.1704 20.0926 34.508C19.755 34.8456 19.2971 35.0353 18.8197 35.0353C18.3423 35.0353 17.8844 34.8456 17.5468 34.508C17.2092 34.1704 17.0195 33.7125 17.0195 33.2351V31.4349C17.0195 30.9575 17.2092 30.4996 17.5468 30.162C17.8844 29.8244 18.3423 29.6348 18.8197 29.6348Z" fill="currentColor"/>
</svg>
