<svg width="36" height="36" viewBox="0 0 36 36" fill="none" xmlns="http://www.w3.org/2000/svg">
<path d="M20.9302 2.27543L18.3916 15.6129L27.5879 15.6438L15.0701 33.7248L17.6086 19.0514L8.41288 19.0194L20.9302 2.27543ZM20.9319 0.0254609C20.8711 0.0254609 20.8104 0.0276758 20.7508 0.0321406C20.3537 0.0642383 20.0904 0.196988 19.7782 0.406801C19.6025 0.52399 19.444 0.66524 19.3074 0.826426C19.2664 0.874803 19.2277 0.92511 19.1915 0.977176L6.5842 17.6626C6.08638 18.3449 6.01326 19.2455 6.39576 19.9982C6.7777 20.7508 7.55001 21.2278 8.39657 21.234L14.8912 21.2812L12.8493 33.3114C12.6553 34.3453 13.2065 35.3758 14.1768 35.7909C14.4588 35.9121 14.7626 35.9745 15.0695 35.9743C15.7765 35.9743 16.3576 35.6435 16.7936 35.0462L29.4166 16.9651C29.9144 16.2828 29.987 15.3811 29.6051 14.6296C29.2231 13.877 28.4508 13.3999 27.6043 13.3938L21.1096 13.3825L23.1296 2.8047C23.1724 2.63153 23.1939 2.45378 23.1937 2.27539C23.1937 1.05814 22.2245 0.0658906 21.0118 0.0265156C20.9848 0.0253906 20.9583 0.0253906 20.9319 0.0253906L20.9319 0.0254609Z" fill="currentColor"/>
</svg>
