<svg width="32" height="33" viewBox="0 0 32 33" fill="none" xmlns="http://www.w3.org/2000/svg">
<path d="M24.7625 8.60122C24.0391 6.87403 22.8214 5.39914 21.2624 4.36186C19.7034 3.32458 17.8726 2.77118 16 2.77118C14.1275 2.77118 12.2967 3.32458 10.7377 4.36186C9.17863 5.39914 7.96093 6.87403 7.23754 8.60122C5.68074 9.32215 4.36142 10.4715 3.43391 11.9148C2.5064 13.3581 2.00905 15.0356 2.00004 16.7512C1.98629 21.6037 5.92004 25.6512 10.7675 25.7762C12.2339 25.8145 13.6873 25.4921 15 24.8375V29.7762C15 30.0414 15.1054 30.2958 15.2929 30.4833C15.4805 30.6709 15.7348 30.7762 16 30.7762C16.2653 30.7762 16.5196 30.6709 16.7071 30.4833C16.8947 30.2958 17 30.0414 17 29.7762V24.8375C18.2423 25.457 19.6119 25.7784 21 25.7762H21.2325C26.08 25.6512 30.0138 21.6062 30 16.7537C29.9916 15.0377 29.4946 13.3595 28.567 11.9157C27.6395 10.4719 26.3198 9.32221 24.7625 8.60122ZM21.1813 23.7762C19.7371 23.8165 18.3163 23.4058 17.1163 22.6012C17.0771 22.5762 17.0384 22.5525 17 22.53V17.3937L22.4475 14.6712C22.5651 14.6125 22.6699 14.5311 22.756 14.4318C22.8421 14.3326 22.9078 14.2173 22.9493 14.0927C22.9909 13.968 23.0075 13.8364 22.9982 13.7053C22.9888 13.5742 22.9538 13.4463 22.895 13.3287C22.8363 13.2112 22.7549 13.1064 22.6557 13.0203C22.5564 12.9342 22.4411 12.8685 22.3165 12.8269C22.1918 12.7854 22.0602 12.7688 21.9291 12.7781C21.798 12.7874 21.6701 12.8225 21.5525 12.8812L17 15.1587V11.7762C17 11.511 16.8947 11.2567 16.7071 11.0691C16.5196 10.8816 16.2653 10.7762 16 10.7762C15.7348 10.7762 15.4805 10.8816 15.2929 11.0691C15.1054 11.2567 15 11.511 15 11.7762V18.1587L10.4475 15.8812C10.2102 15.7625 9.93537 15.743 9.68361 15.8269C9.43184 15.9109 9.22372 16.0914 9.10503 16.3287C8.98635 16.5661 8.96682 16.8409 9.05074 17.0927C9.13467 17.3444 9.31517 17.5525 9.55254 17.6712L15 20.3937V22.5262C14.9609 22.5487 14.9221 22.5725 14.8838 22.5975C13.6839 23.4027 12.2633 23.8146 10.8188 23.7762C9.23782 23.7367 7.71681 23.1631 6.50355 22.1487C5.29029 21.1343 4.45627 19.7389 4.13738 18.1899C3.81848 16.641 4.03349 15.0297 4.74739 13.6185C5.46128 12.2073 6.63199 11.0795 8.06879 10.4187C8.5232 10.2105 8.88249 9.83874 9.07504 9.37747C9.64584 8.0133 10.6072 6.84831 11.8382 6.02896C13.0692 5.2096 14.515 4.77245 15.9938 4.77245C17.4726 4.77245 18.9183 5.2096 20.1494 6.02896C21.3804 6.84831 22.3417 8.0133 22.9125 9.37747C23.1051 9.83874 23.4644 10.2105 23.9188 10.4187C25.3556 11.0795 26.5263 12.2073 27.2402 13.6185C27.9541 15.0297 28.1691 16.641 27.8502 18.1899C27.5313 19.7389 26.6973 21.1343 25.484 22.1487C24.2708 23.1631 22.7498 23.7367 21.1688 23.7762H21.1813Z" fill="#3CB34A"/>
</svg>
